<svg xmlns="http://www.w3.org/2000/svg" xmlns:xlink="http://www.w3.org/1999/xlink" viewBox="0 0 571.48 557.77"><defs><style>.cls-1,.cls-2,.cls-3,.cls-4{fill:none;}.cls-1,.cls-3,.cls-4{stroke:#000;}.cls-1,.cls-3{stroke-linecap:round;stroke-linejoin:round;}.cls-1{stroke-width:10px;}.cls-4{stroke-miterlimit:10;}.cls-5{clip-path:url(#clip-path);}.cls-6{clip-path:url(#clip-path-2);}.cls-7{clip-path:url(#clip-path-3);}.cls-8{clip-path:url(#clip-path-4);}.cls-9{clip-path:url(#clip-path-5);}.cls-10{clip-path:url(#clip-path-6);}</style><clipPath id="clip-path" transform="translate(62.78 7.36)"><path class="cls-1" d="M233.83,210.93,91.14,297.1,86.61,127.89l30.45-18.39,3.87,137.11,112-67.54h0"/></clipPath><clipPath id="clip-path-2" transform="translate(62.78 7.36)"><polygon class="cls-2" points="117.66 114.99 182.34 149.68 121.73 246.06 117.66 114.99"/></clipPath><clipPath id="clip-path-3" transform="translate(62.78 7.36)"><polygon class="cls-2" points="177.21 148.41 283.9 80.02 228.09 182.6 121.64 245.75 177.21 148.41"/></clipPath><clipPath id="clip-path-4" transform="translate(62.78 7.36)"><path class="cls-2" d="M151.93,294.42l32.79-19.85L180,314.28Zm53.95,34.41,61.74,36.73,0-65.54-15.23.75Z"/></clipPath><clipPath id="clip-path-5" transform="translate(62.78 7.36)"><path class="cls-2" d="M181.5,313.91l1-36.92L238,242.47l29.11,15.6Z"/></clipPath><clipPath id="clip-path-6" transform="translate(62.78 7.36)"><path class="cls-2" d="M265.64,195.49l12.9-22.89,43.64,20.82,27.54,78.68-59.3,1.45,27-16.51L319.36,228Zm48-30.32-14.1-36.29-11.69,22Z"/></clipPath></defs><g id="Layer_1" data-name="Layer 1"><path class="cls-1" d="M233.81,210.9,89.14,298.26l-3.53-170.5,30.46-18.39,2.87,138.39" transform="translate(62.78 7.36)"/><path class="cls-1" d="M249.11,185.68" transform="translate(62.78 7.36)"/><path class="cls-1" d="M233.14,178.79" transform="translate(62.78 7.36)"/><polyline class="cls-1" points="295.76 186.43 354.54 81.88 382.92 97.09 449.91 300.71 414.32 281.01 386.78 202.33 343.15 178.54 330.24 204.4"/><polygon class="cls-1" points="352.49 159.83 364.87 133.37 378.27 174.08 352.49 159.83"/><path class="cls-1" d="M89.14,298.26l154.42,82.15L268.83,365l-65.07-35.2L253.21,300l133.92-6.6h0l-35.62-19.55-59.26,1.3,29.17-18.52L278.8,233.91l-45-23Zm147.29-56,32,17.14-88.86,56.49-31.77-17.48Z" transform="translate(62.78 7.36)"/><line class="cls-1" x1="178.85" y1="116.72" x2="245.16" y2="152.92"/><line class="cls-1" x1="331.61" y1="372.34" x2="331.22" y2="306.57"/><path class="cls-1" d="M287,174.84" transform="translate(62.78 7.36)"/><path class="cls-1" d="M346.62,240.49" transform="translate(62.78 7.36)"/><path class="cls-1" d="M267.46,197.05" transform="translate(62.78 7.36)"/><line class="cls-1" x1="330.24" y1="204.4" x2="383.98" y2="233.89"/><line class="cls-1" x1="383.98" y1="233.89" x2="384.2" y2="263.94"/><path class="cls-1" d="M291.74,74.24c0,.83-109.36,71.32-109.36,71.32" transform="translate(62.78 7.36)"/><line class="cls-3" x1="245.16" y1="152.92" x2="245.16" y2="152.92"/><path class="cls-3" d="M179.55,315.85" transform="translate(62.78 7.36)"/><path class="cls-3" d="M184.33,276.14" transform="translate(62.78 7.36)"/><path class="cls-1" d="M297.65,212" transform="translate(62.78 7.36)"/><path class="cls-1" d="M324,195" transform="translate(62.78 7.36)"/><path class="cls-1" d="M268.83,365" transform="translate(62.78 7.36)"/><path class="cls-1" d="M387,293.36" transform="translate(62.78 7.36)"/><path class="cls-4" d="M110.15,830.81" transform="translate(62.78 7.36)"/><path class="cls-4" d="M117.22,830.81" transform="translate(62.78 7.36)"/><path class="cls-4" d="M124.29,830.81" transform="translate(62.78 7.36)"/><path class="cls-4" d="M131.36,830.81" transform="translate(62.78 7.36)"/><path class="cls-4" d="M138.43,830.81" transform="translate(62.78 7.36)"/><path class="cls-4" d="M145.5,830.81" transform="translate(62.78 7.36)"/><path class="cls-4" d="M152.57,830.81" transform="translate(62.78 7.36)"/><path class="cls-4" d="M159.64,830.81" transform="translate(62.78 7.36)"/><path class="cls-4" d="M166.72,830.81" transform="translate(62.78 7.36)"/><path class="cls-4" d="M173.79,830.81" transform="translate(62.78 7.36)"/><path class="cls-4" d="M180.86,830.81" transform="translate(62.78 7.36)"/><path class="cls-4" d="M187.93,830.81" transform="translate(62.78 7.36)"/><path class="cls-4" d="M195,830.81" transform="translate(62.78 7.36)"/><path class="cls-4" d="M202.07,830.81" transform="translate(62.78 7.36)"/><path class="cls-4" d="M209.14,830.81" transform="translate(62.78 7.36)"/><path class="cls-4" d="M216.21,830.81" transform="translate(62.78 7.36)"/><path class="cls-4" d="M223.28,830.81" transform="translate(62.78 7.36)"/><path class="cls-4" d="M230.36,830.81" transform="translate(62.78 7.36)"/><path class="cls-4" d="M237.43,830.81" transform="translate(62.78 7.36)"/><path class="cls-4" d="M244.5,830.81" transform="translate(62.78 7.36)"/><path class="cls-4" d="M251.57,830.81" transform="translate(62.78 7.36)"/><path class="cls-4" d="M258.64,830.81" transform="translate(62.78 7.36)"/><path class="cls-4" d="M265.71,830.81" transform="translate(62.78 7.36)"/><path class="cls-4" d="M272.78,830.81" transform="translate(62.78 7.36)"/><path class="cls-4" d="M279.85,830.81" transform="translate(62.78 7.36)"/><path class="cls-4" d="M286.92,830.81" transform="translate(62.78 7.36)"/><path class="cls-4" d="M294,830.81" transform="translate(62.78 7.36)"/><path class="cls-4" d="M301.07,830.81" transform="translate(62.78 7.36)"/><path class="cls-4" d="M308.14,830.81" transform="translate(62.78 7.36)"/><path class="cls-4" d="M315.21,830.81" transform="translate(62.78 7.36)"/><path class="cls-4" d="M322.28,830.81" transform="translate(62.78 7.36)"/><path class="cls-4" d="M329.35,830.81" transform="translate(62.78 7.36)"/><path class="cls-4" d="M336.42,830.81" transform="translate(62.78 7.36)"/><path class="cls-4" d="M343.49,830.81" transform="translate(62.78 7.36)"/><path class="cls-4" d="M350.56,830.81" transform="translate(62.78 7.36)"/><path class="cls-4" d="M357.63,830.81" transform="translate(62.78 7.36)"/><path class="cls-4" d="M364.71,830.81" transform="translate(62.78 7.36)"/><path class="cls-4" d="M371.78,830.81" transform="translate(62.78 7.36)"/><path class="cls-4" d="M378.85,830.81" transform="translate(62.78 7.36)"/><path class="cls-4" d="M385.92,830.81" transform="translate(62.78 7.36)"/><circle class="cls-1" cx="288.57" cy="231.29" r="212.57"/></g><g id="Lines_L" data-name="Lines L"><g class="cls-5"><path class="cls-4" d="M-225.52,835.75" transform="translate(62.78 7.36)"/><path class="cls-4" d="M-218.45,835.75" transform="translate(62.78 7.36)"/><path class="cls-4" d="M-211.38,835.75" transform="translate(62.78 7.36)"/><path class="cls-4" d="M-204.31,835.75" transform="translate(62.78 7.36)"/><path class="cls-4" d="M-197.24,835.75" transform="translate(62.78 7.36)"/><path class="cls-4" d="M-190.17,835.75" transform="translate(62.78 7.36)"/><path class="cls-4" d="M-183.1,835.75" transform="translate(62.78 7.36)"/><path class="cls-4" d="M-176,835.75" transform="translate(62.78 7.36)"/><path class="cls-4" d="M-169,835.75" transform="translate(62.78 7.36)"/><path class="cls-4" d="M-161.88,835.75" transform="translate(62.78 7.36)"/><path class="cls-4" d="M-154.81,835.75" transform="translate(62.78 7.36)"/><path class="cls-4" d="M-147.74,835.75" transform="translate(62.78 7.36)"/><path class="cls-4" d="M-140.67,835.75" transform="translate(62.78 7.36)"/><path class="cls-4" d="M-133.6,835.75" transform="translate(62.78 7.36)"/><path class="cls-4" d="M-126.53,835.75" transform="translate(62.78 7.36)"/><path class="cls-4" d="M-119.46,835.75" transform="translate(62.78 7.36)"/><path class="cls-4" d="M-112.39,835.75" transform="translate(62.78 7.36)"/><path class="cls-4" d="M-105.32,835.75" transform="translate(62.78 7.36)"/><path class="cls-4" d="M-98.25,835.75" transform="translate(62.78 7.36)"/><path class="cls-4" d="M-91.17,835.75" transform="translate(62.78 7.36)"/><path class="cls-4" d="M-84.1,835.75" transform="translate(62.78 7.36)"/><path class="cls-4" d="M-77,835.75" transform="translate(62.78 7.36)"/><path class="cls-4" d="M-70,835.75" transform="translate(62.78 7.36)"/><path class="cls-4" d="M-62.89,835.75" transform="translate(62.78 7.36)"/><path class="cls-4" d="M-55.82,835.75" transform="translate(62.78 7.36)"/><path class="cls-4" d="M-48.75,835.75" transform="translate(62.78 7.36)"/><path class="cls-4" d="M-41.68,835.75" transform="translate(62.78 7.36)"/><path class="cls-4" d="M-34.61,835.75" transform="translate(62.78 7.36)"/><path class="cls-4" d="M-27.53,835.75" transform="translate(62.78 7.36)"/><path class="cls-4" d="M-20.46,835.75" transform="translate(62.78 7.36)"/><path class="cls-4" d="M-13.39,835.75" transform="translate(62.78 7.36)"/><path class="cls-4" d="M-6.32,835.75" transform="translate(62.78 7.36)"/><path class="cls-4" d="M.75,835.75" transform="translate(62.78 7.36)"/><path class="cls-4" d="M7.82,835.75" transform="translate(62.78 7.36)"/><path class="cls-4" d="M14.89,835.75" transform="translate(62.78 7.36)"/><path class="cls-4" d="M22,835.75" transform="translate(62.78 7.36)"/><path class="cls-4" d="M29,835.75" transform="translate(62.78 7.36)"/><path class="cls-4" d="M36.11,835.75" transform="translate(62.78 7.36)"/><path class="cls-4" d="M43.18,835.75" transform="translate(62.78 7.36)"/><path class="cls-4" d="M50.25,835.75" transform="translate(62.78 7.36)"/><path class="cls-4" d="M92.25,830.81" transform="translate(62.78 7.36)"/><path class="cls-4" d="M99.32,830.81" transform="translate(62.78 7.36)"/><path class="cls-4" d="M106.39,830.81" transform="translate(62.78 7.36)"/><path class="cls-4" d="M113.47,830.81" transform="translate(62.78 7.36)"/><path class="cls-4" d="M120.54,830.81" transform="translate(62.78 7.36)"/><path class="cls-4" d="M127.61,830.81" transform="translate(62.78 7.36)"/><path class="cls-4" d="M134.68,830.81" transform="translate(62.78 7.36)"/><path class="cls-4" d="M141.75,830.81" transform="translate(62.78 7.36)"/><path class="cls-4" d="M148.82,830.81" transform="translate(62.78 7.36)"/><path class="cls-4" d="M155.89,830.81" transform="translate(62.78 7.36)"/><path class="cls-4" d="M163,830.81" transform="translate(62.78 7.36)"/><path class="cls-4" d="M170,830.81" transform="translate(62.78 7.36)"/><path class="cls-4" d="M177.11,830.81" transform="translate(62.78 7.36)"/><path class="cls-4" d="M184.18,830.81" transform="translate(62.78 7.36)"/><path class="cls-4" d="M191.25,830.81" transform="translate(62.78 7.36)"/><path class="cls-4" d="M198.32,830.81" transform="translate(62.78 7.36)"/><path class="cls-4" d="M205.39,830.81" transform="translate(62.78 7.36)"/><path class="cls-4" d="M212.46,830.81" transform="translate(62.78 7.36)"/><path class="cls-4" d="M219.53,830.81" transform="translate(62.78 7.36)"/><path class="cls-4" d="M226.6,830.81" transform="translate(62.78 7.36)"/><path class="cls-4" d="M233.67,830.81" transform="translate(62.78 7.36)"/><path class="cls-4" d="M240.74,830.81" transform="translate(62.78 7.36)"/><path class="cls-4" d="M247.82,830.81" transform="translate(62.78 7.36)"/><path class="cls-4" d="M254.89,830.81" transform="translate(62.78 7.36)"/><path class="cls-4" d="M262,830.81" transform="translate(62.78 7.36)"/><path class="cls-4" d="M269,830.81" transform="translate(62.78 7.36)"/><path class="cls-4" d="M276.1,830.81" transform="translate(62.78 7.36)"/><path class="cls-4" d="M283.17,830.81" transform="translate(62.78 7.36)"/><path class="cls-4" d="M290.24,830.81" transform="translate(62.78 7.36)"/><path class="cls-4" d="M297.31,830.81" transform="translate(62.78 7.36)"/><path class="cls-4" d="M304.38,830.81" transform="translate(62.78 7.36)"/><path class="cls-4" d="M311.46,830.81" transform="translate(62.78 7.36)"/><path class="cls-4" d="M318.53,830.81" transform="translate(62.78 7.36)"/><path class="cls-4" d="M325.6,830.81" transform="translate(62.78 7.36)"/><path class="cls-4" d="M332.67,830.81" transform="translate(62.78 7.36)"/><path class="cls-4" d="M339.74,830.81" transform="translate(62.78 7.36)"/><path class="cls-4" d="M346.81,830.81" transform="translate(62.78 7.36)"/><path class="cls-4" d="M353.88,830.81" transform="translate(62.78 7.36)"/><path class="cls-4" d="M361,830.81" transform="translate(62.78 7.36)"/><path class="cls-4" d="M368,830.81" transform="translate(62.78 7.36)"/></g><path class="cls-1" d="M233.83,210.93,91.14,297.1,86.61,127.89l30.45-18.39,3.87,137.11,112-67.54h0" transform="translate(62.78 7.36)"/></g><g id="Lines_blank_space" data-name="Lines blank space"><g id="Layer_9" data-name="Layer 9"><g class="cls-6"><line class="cls-4" x1="19.63" y1="78.37" x2="28.15" y2="442.77"/><line class="cls-4" x1="26.7" y1="78.2" x2="35.22" y2="442.6"/><line class="cls-4" x1="33.77" y1="78.04" x2="42.29" y2="442.44"/><line class="cls-4" x1="40.84" y1="77.87" x2="49.35" y2="442.27"/><line class="cls-4" x1="47.91" y1="77.71" x2="56.42" y2="442.11"/><line class="cls-4" x1="54.98" y1="77.54" x2="63.49" y2="441.94"/><line class="cls-4" x1="62.05" y1="77.38" x2="70.56" y2="441.78"/><line class="cls-4" x1="69.12" y1="77.21" x2="77.63" y2="441.61"/><line class="cls-4" x1="76.19" y1="77.05" x2="84.7" y2="441.45"/><line class="cls-4" x1="83.26" y1="76.88" x2="91.77" y2="441.28"/><line class="cls-4" x1="90.32" y1="76.72" x2="98.84" y2="441.12"/><line class="cls-4" x1="97.39" y1="76.55" x2="105.91" y2="440.95"/><line class="cls-4" x1="104.46" y1="76.39" x2="112.98" y2="440.79"/><line class="cls-4" x1="111.53" y1="76.22" x2="120.05" y2="440.62"/><line class="cls-4" x1="118.6" y1="76.06" x2="127.12" y2="440.46"/><line class="cls-4" x1="125.67" y1="75.89" x2="134.18" y2="440.29"/><line class="cls-4" x1="132.74" y1="75.73" x2="141.25" y2="440.13"/><line class="cls-4" x1="139.81" y1="75.56" x2="148.32" y2="439.96"/><line class="cls-4" x1="146.88" y1="75.39" x2="155.39" y2="439.79"/><line class="cls-4" x1="153.95" y1="75.23" x2="162.46" y2="439.63"/><line class="cls-4" x1="161.02" y1="75.06" x2="169.53" y2="439.46"/><line class="cls-4" x1="168.09" y1="74.9" x2="176.6" y2="439.3"/><line class="cls-4" x1="175.15" y1="74.73" x2="183.67" y2="439.13"/><line class="cls-4" x1="182.22" y1="74.57" x2="190.74" y2="438.97"/><line class="cls-4" x1="189.29" y1="74.4" x2="197.81" y2="438.8"/><line class="cls-4" x1="196.36" y1="74.24" x2="204.88" y2="438.64"/><line class="cls-4" x1="203.43" y1="74.07" x2="211.95" y2="438.47"/><line class="cls-4" x1="210.5" y1="73.91" x2="219.01" y2="438.31"/><line class="cls-4" x1="217.57" y1="73.74" x2="226.08" y2="438.14"/><line class="cls-4" x1="224.64" y1="73.58" x2="233.15" y2="437.98"/><line class="cls-4" x1="231.71" y1="73.41" x2="240.22" y2="437.81"/><line class="cls-4" x1="238.78" y1="73.25" x2="247.29" y2="437.65"/><line class="cls-4" x1="245.85" y1="73.08" x2="254.36" y2="437.48"/><line class="cls-4" x1="252.92" y1="72.92" x2="261.43" y2="437.32"/><line class="cls-4" x1="259.98" y1="72.75" x2="268.5" y2="437.15"/><line class="cls-4" x1="267.05" y1="72.59" x2="275.57" y2="436.99"/><line class="cls-4" x1="274.12" y1="72.42" x2="282.64" y2="436.82"/><line class="cls-4" x1="281.19" y1="72.26" x2="289.71" y2="436.66"/><line class="cls-4" x1="288.26" y1="72.09" x2="296.77" y2="436.49"/><line class="cls-4" x1="295.33" y1="71.93" x2="303.84" y2="436.33"/></g></g><g id="Layer_10" data-name="Layer 10"><g class="cls-7"><line class="cls-4" x1="193.89" y1="0.27" x2="0.42" y2="309.18"/><line class="cls-4" x1="199.88" y1="4.02" x2="6.42" y2="312.94"/><line class="cls-4" x1="205.88" y1="7.77" x2="12.41" y2="316.69"/><line class="cls-4" x1="211.87" y1="11.52" x2="18.4" y2="320.44"/><line class="cls-4" x1="217.86" y1="15.28" x2="24.4" y2="324.2"/><line class="cls-4" x1="223.86" y1="19.03" x2="30.39" y2="327.95"/><line class="cls-4" x1="229.85" y1="22.78" x2="36.38" y2="331.7"/><line class="cls-4" x1="235.84" y1="26.54" x2="42.37" y2="335.46"/><line class="cls-4" x1="241.83" y1="30.29" x2="48.37" y2="339.21"/><line class="cls-4" x1="247.83" y1="34.04" x2="54.36" y2="342.96"/><line class="cls-4" x1="253.82" y1="37.8" x2="60.35" y2="346.71"/><line class="cls-4" x1="259.81" y1="41.55" x2="66.34" y2="350.47"/><line class="cls-4" x1="265.8" y1="45.3" x2="72.34" y2="354.22"/><line class="cls-4" x1="271.8" y1="49.06" x2="78.33" y2="357.97"/><line class="cls-4" x1="277.79" y1="52.81" x2="84.32" y2="361.73"/><line class="cls-4" x1="283.78" y1="56.56" x2="90.32" y2="365.48"/><line class="cls-4" x1="289.78" y1="60.32" x2="96.31" y2="369.23"/><line class="cls-4" x1="295.77" y1="64.07" x2="102.3" y2="372.99"/><line class="cls-4" x1="301.76" y1="67.82" x2="108.29" y2="376.74"/><line class="cls-4" x1="307.75" y1="71.58" x2="114.29" y2="380.49"/><line class="cls-4" x1="313.75" y1="75.33" x2="120.28" y2="384.25"/><line class="cls-4" x1="319.74" y1="79.08" x2="126.27" y2="388"/><line class="cls-4" x1="325.73" y1="82.83" x2="132.27" y2="391.75"/><line class="cls-4" x1="331.73" y1="86.59" x2="138.26" y2="395.51"/><line class="cls-4" x1="337.72" y1="90.34" x2="144.25" y2="399.26"/><line class="cls-4" x1="343.71" y1="94.09" x2="150.24" y2="403.01"/><line class="cls-4" x1="349.7" y1="97.85" x2="156.24" y2="406.76"/><line class="cls-4" x1="355.7" y1="101.6" x2="162.23" y2="410.52"/><line class="cls-4" x1="361.69" y1="105.35" x2="168.22" y2="414.27"/><line class="cls-4" x1="367.68" y1="109.11" x2="174.22" y2="418.02"/><line class="cls-4" x1="373.68" y1="112.86" x2="180.21" y2="421.78"/><line class="cls-4" x1="379.67" y1="116.61" x2="186.2" y2="425.53"/><line class="cls-4" x1="385.66" y1="120.37" x2="192.19" y2="429.28"/><line class="cls-4" x1="391.65" y1="124.12" x2="198.19" y2="433.04"/><line class="cls-4" x1="397.65" y1="127.87" x2="204.18" y2="436.79"/><line class="cls-4" x1="403.64" y1="131.63" x2="210.17" y2="440.54"/><line class="cls-4" x1="409.63" y1="135.38" x2="216.17" y2="444.3"/><line class="cls-4" x1="415.63" y1="139.13" x2="222.16" y2="448.05"/><line class="cls-4" x1="421.62" y1="142.89" x2="228.15" y2="451.8"/><line class="cls-4" x1="427.61" y1="146.64" x2="234.14" y2="455.56"/></g></g><g id="R_lines" data-name="R lines"><g class="cls-8"><path class="cls-4" d="M141.91,186l8.52,364.4m7.07-.17L149,185.84m7.07-.17,8.52,364.4m-1.45-364.56,8.52,364.4m-1.45-364.57,8.51,364.4m-1.44-364.56,8.51,364.4m7.07-.17L184.33,185m7.07-.16,8.51,364.4m-1.44-364.57L207,549.08m-1.44-364.56,8.51,364.4m-1.44-364.57,8.51,364.4m7.07-.16-8.52-364.4m15.59,364.23L226.74,184m7.07-.16,8.52,364.4m-1.45-364.57,8.52,364.4M248,183.53l8.51,364.4M255,183.36l8.51,364.4M262.09,183.2l8.51,364.4m7.07-.17L269.16,183m15.58,364.24-8.51-364.4m7.07-.17,8.51,364.4m-1.44-364.56,8.51,364.4m-1.45-364.57L306,546.77M304.5,182.21,313,546.61m7.07-.17L311.57,182m7.07-.16,8.52,364.4m-1.45-364.57,8.52,364.4m-1.45-364.56L341.29,546m-1.44-364.57,8.51,364.4m-1.44-364.56,8.51,364.4M354,181.05l8.51,364.4m7.07-.17-8.51-364.39m7.07-.17,8.51,364.4M375.2,180.55,383.71,545m-1.45-364.56,8.52,364.4m-1.45-364.57,8.52,364.4M396.4,180.06l8.52,364.4m-1.45-364.57L412,544.29m-1.45-364.56,8.52,364.4m-1.45-364.57L426.12,544" transform="translate(62.78 7.36)"/></g></g><g id="R_lines_2" data-name="R lines 2"><g class="cls-9"><path class="cls-4" d="M155.07,130l-61,359.36m7,1.18,61-359.36m7,1.18L108,491.76m68-358.17L115,493m68-358.18L122,494.13m68-358.18-61,359.36m7,1.19,61-359.36m7,1.18-61,359.36m68-358.18-61,359.36m68-358.17-61,359.36m68-358.18-61,359.36m7,1.18,61-359.36m-54,360.55,61-359.36m7,1.18-61,359.36m68-358.18L191.67,506m68-358.17-61,359.36m68-358.18-61,359.36m68-358.18-61,359.36m7,1.19,61-359.36m-54,360.54,61-359.36m7,1.18-61,359.36m68-358.17-61,359.36m68-358.18-61,359.36m68-358.18-61,359.36m7,1.19,61-359.36m7,1.18L268.36,519m68-358.18-61,359.36M343.3,162l-61,359.35m68-358.17-61,359.36m68-358.18-61,359.36m68-358.17-61,359.35m7,1.19,61-359.36m7,1.18-61,359.36m68-358.17-61,359.35m68-358.17-61,359.36m68-358.18-61,359.36m68-358.17L345,532m68-358.17L352,533.18M420,175,359,534.36m68-358.17L366,535.54" transform="translate(62.78 7.36)"/></g></g><g id="Layer_13" data-name="Layer 13"><g class="cls-10"><path class="cls-4" d="M133.57,157.76l112.3,346.77m6.73-2.18L140.3,155.58M147,153.4,259.32,500.17m-105.57-349L266.05,498M160.48,149.05l112.3,346.77M167.21,146.87,279.5,493.64m6.73-2.18L173.93,144.69m6.73-2.18L293,489.28M187.39,140.33,299.69,487.1m-105.57-349L306.41,484.92M200.84,136l112.3,346.76m6.73-2.17L207.57,133.8m119,344.59L214.3,131.62m6.72-2.18,112.3,346.77M227.75,127.26,340.05,474M234.48,125.08l112.3,346.77m-105.57-349L353.5,469.67M247.93,120.73,360.23,467.5m6.73-2.18L254.66,118.55m119,344.59L261.39,116.37m6.72-2.18L380.41,461M274.84,112l112.3,346.77M281.57,109.83,393.87,456.6m-105.57-349L400.59,454.42m6.73-2.17L295,105.48m6.73-2.18,112.3,346.77M308.48,101.12,420.77,447.89M315.2,98.94,427.5,445.71M321.93,96.76l112.3,346.77M328.66,94.58,441,441.35M335.39,92.41,447.68,439.18m6.73-2.18L342.11,90.23m6.73-2.18,112.3,346.77M355.57,85.87,467.86,432.64M362.29,83.69l112.3,346.77M369,81.51l112.3,346.77M375.75,79.33,488.05,426.1M382.48,77.16,494.77,423.93M389.2,75,501.5,421.75M395.93,72.8l112.3,346.77" transform="translate(62.78 7.36)"/></g></g></g></svg>